<?xml version="1.0" encoding="UTF-8" standalone="no"?>
<!-- Created with Inkscape (http://www.inkscape.org/) -->

<svg
   width="210mm"
   height="297mm"
   viewBox="0 0 210 297"
   version="1.1"
   id="svg5"
   inkscape:version="1.1.1 (3bf5ae0d25, 2021-09-20)"
   sodipodi:docname="Кастрюля.svg"
   xmlns:inkscape="http://www.inkscape.org/namespaces/inkscape"
   xmlns:sodipodi="http://sodipodi.sourceforge.net/DTD/sodipodi-0.dtd"
   xmlns="http://www.w3.org/2000/svg"
   xmlns:svg="http://www.w3.org/2000/svg">
  <sodipodi:namedview
     id="namedview7"
     pagecolor="#ffffff"
     bordercolor="#666666"
     borderopacity="1.0"
     inkscape:pageshadow="2"
     inkscape:pageopacity="0.0"
     inkscape:pagecheckerboard="0"
     inkscape:document-units="mm"
     showgrid="false"
     inkscape:snap-others="true"
     inkscape:snap-object-midpoints="true"
     inkscape:object-paths="true"
     inkscape:snap-global="true"
     inkscape:snap-bbox="false"
     inkscape:zoom="0.54342031"
     inkscape:cx="396.56228"
     inkscape:cy="621.98632"
     inkscape:window-width="1440"
     inkscape:window-height="838"
     inkscape:window-x="-8"
     inkscape:window-y="-8"
     inkscape:window-maximized="1"
     inkscape:current-layer="layer1" />
  <defs
     id="defs2" />
  <g
     inkscape:label="Слой 1"
     inkscape:groupmode="layer"
     id="layer1">
    <g
       id="g7010"
       transform="translate(6.8163934,13.632787)">
      <path
         style="fill:#00ffff;stroke-width:1.8402"
         d=""
         id="path1180"
         transform="scale(0.26458333)" />
      <path
         id="rect2226"
         style="fill:#00ffff;stroke-width:0.270163"
         d="M 18.014757,144.6049 H 172.84427 L 150.93443,207.89999 44.793446,207.4131 Z"
         sodipodi:nodetypes="ccccc" />
      <ellipse
         style="fill:#ff6600;stroke-width:0.264583"
         id="path2330"
         cx="95.429504"
         cy="146.30902"
         rx="77.901642"
         ry="18.258196" />
      <path
         id="path2481"
         style="fill:none;fill-rule:evenodd;stroke:#000000;stroke-width:1.19161;stroke-linecap:butt;stroke-linejoin:round;stroke-miterlimit:4;stroke-dasharray:0.297902, 0.297902;stroke-dashoffset:0;paint-order:normal"
         inkscape:transform-center-x="-5.4041454"
         inkscape:transform-center-y="2.1283754"
         d="m 91.110094,111.69977 c -1.141946,1.70209 -5.010446,0.0455 -5.483246,-0.97923 -1.281239,-2.77715 4.562842,-4.73976 9.279205,-4.67875 8.436457,0.10911 13.624267,4.58254 12.653747,8.59568 -1.42426,5.88944 -13.245015,9.36547 -24.041623,8.37828 -14.39018,-1.31578 -22.716759,-9.09163 -19.824295,-16.21214 3.639887,-8.960448 22.004292,-14.084648 38.804078,-12.077796 20.34678,2.430556 31.89226,13.615626 26.9948,23.828586 -5.77147,12.03562 -30.778172,18.82738 -53.566491,15.77732 -26.310024,-3.52141 -41.095687,-18.14414 -34.165343,-31.44505 7.874703,-15.113327 39.557819,-23.579563 68.328934,-19.476836 32.27687,4.602644 50.3118,22.674716 41.33587,39.061496 -6.52599,11.91406 -25.94499,21.07335 -49.28135,23.73948" />
      <path
         style="fill:#ffe6d5;stroke-width:1.8402"
         d="m 263.30716,783.03615 -93.6909,-0.95276 -43.05643,-100.94468 C 102.87879,625.61914 83.847757,579.84967 84.268643,579.42879 c 0.420885,-0.42089 5.647181,1.64339 11.613991,4.58728 32.235696,15.90438 93.418936,28.54258 171.865916,35.50114 34.92534,3.09802 150.95751,3.13681 184.93972,0.0618 89.00144,-8.05356 153.14968,-22.2907 181.96331,-40.38515 l 7.14467,-4.48672 -1.10443,4.31751 c -0.60745,2.37464 -16.75285,49.44833 -35.87869,104.60821 l -34.77425,100.29069 -106.52041,0.0328 c -58.58622,0.0184 -148.68131,-0.39609 -200.21131,-0.9201 z"
         id="path2830"
         transform="scale(0.26458333)" />
      <path
         style="fill:#ffe6d5;stroke-width:1.8402"
         d="M 212.83386,781.21454 169.88045,780.24319 147.93293,728.7177 C 102.33515,621.66928 86.863477,584.19474 87.855748,583.20247 c 0.563032,-0.56303 7.110601,1.5688 14.550152,4.73741 28.07588,11.9579 75.33981,22.13149 138.13179,29.73296 30.17164,3.65251 42.50026,4.0802 119.22067,4.13578 70.05126,0.0507 90.57488,-0.52204 113.17206,-3.1585 77.66054,-9.06081 134.93097,-22.28376 158.81372,-36.6679 3.34259,-2.01318 6.46787,-3.26988 6.94509,-2.79267 0.66791,0.66791 -33.74028,101.68849 -66.7564,195.9931 l -2.73806,7.82084 -156.70375,-0.4088 c -86.18706,-0.22484 -176.03278,-0.84591 -199.65716,-1.38015 z"
         id="path2906"
         transform="scale(0.26458333)" />
      <path
         style="fill:#b7b7c8;stroke-width:1.8402"
         d="m 212.84561,781.21454 -43.54754,2.709 -23.75452,-60.72643 C 106.71113,623.92529 86.81594,584.24228 87.851264,583.20695 c 0.549672,-0.54967 5.850652,1.02964 11.779956,3.50959 41.24623,17.25132 113.2335,30.35866 190.19968,34.6313 52.2891,2.90274 150.54936,0.86966 192.19617,-3.97668 62.78423,-7.30606 113.2287,-18.53442 140.33542,-31.23706 8.71515,-4.08406 16.14388,-7.12742 16.50827,-6.76302 0.50372,0.50372 -55.31298,163.87907 -67.52712,197.65177 l -0.8828,8.7409 -157.97687,-3.16906 c -86.16614,-1.72852 -176.02045,-0.84591 -199.63836,-1.38015 z"
         id="path2945"
         transform="scale(0.26458333)"
         sodipodi:nodetypes="scsssssssscss" />
      <path
         style="fill:#c87137;stroke-width:1.8402"
         d="M 289.8309,619.05594 C 205.61266,614.07079 127.01337,598.59028 92.466004,580.18395 86.644264,577.08222 78.570403,570.95284 74.524092,566.56311 64.596091,555.7925 64.666407,550.08914 74.863586,539.02651 90.180646,522.40946 130.4221,508.15165 191.20333,497.80659 l 31.10627,-5.29434 15.81874,5.25923 c 58.91578,19.58762 137.85632,18.32475 192.35542,-3.07726 l 16.68392,-6.55184 25.76274,2.21655 c 14.16952,1.21911 34.45768,3.60203 45.08481,5.29539 l 19.32206,3.07882 -13.8196,8.63598 c -31.67307,19.79276 -77.52172,35.4735 -122.81497,42.00409 -8.34989,1.20392 -15.18162,2.9593 -15.18162,3.90083 0,0.94485 3.09196,1.22426 6.90074,0.62359 24.46248,-3.8579 32.72841,-5.4531 48.56747,-9.3728 34.59124,-8.56031 68.44049,-22.73753 91.63272,-38.3789 l 10.00629,-6.74847 13.91626,3.01313 c 37.3419,8.08522 74.47,21.80939 85.69974,31.67835 13.71877,12.05639 15.15319,20.84941 5.19861,31.86792 -12.26783,13.57903 -31.23645,22.30203 -70.22816,32.29546 -73.04565,18.72134 -185.29166,26.84679 -287.38387,20.80362 z"
         id="path3314"
         transform="scale(0.26458333)" />
      <path
         style="fill:#ff6600;stroke-width:1.8402"
         d="m 299.95198,507.52686 c -22.00377,-1.99896 -66.83992,-12.76572 -64.01221,-15.37162 4.71834,-4.34822 118.79254,-8.59455 170.74359,-6.3558 l 33.12353,1.4274 -8.28088,3.57315 c -31.02405,13.38666 -88.25446,20.6623 -131.57403,16.72687 z"
         id="path3353"
         transform="scale(0.26458333)" />
      <path
         style="fill:#d45500;stroke-width:1.8402"
         d="m 284.31031,618.06316 c -78.80342,-6.77762 -137.2951,-17.19642 -173.90695,-30.97708 -23.903587,-8.99729 -41.396002,-23.43451 -41.396002,-34.16585 0,-12.43926 21.74162,-27.5999 55.304042,-38.56404 21.97786,-7.1797 78.29356,-18.75761 92.83175,-19.08521 7.47647,-0.16848 16.38026,1.40497 27.5782,4.87353 58.20266,18.02824 134.90366,15.66196 189.0092,-5.83106 13.64772,-5.42145 14.1459,-5.47832 32.96917,-3.76372 22.5165,2.05102 60.2948,6.93433 64.11098,8.28713 3.58607,1.27123 -3.25584,5.82863 -26.41425,17.59454 -29.09909,14.78417 -66.22201,25.9586 -111.97461,33.70567 -7.14013,1.209 -9.61979,4.68209 -3.34284,4.68209 1.95682,0 14.76917,-2.07066 28.47186,-4.60145 42.09259,-7.77422 84.42633,-23.48941 112.90712,-41.91354 l 12.7817,-8.26844 23.73165,6.01229 c 57.17902,14.48602 85.37822,29.681 85.37822,46.00554 0,11.92222 -16.05939,25.49584 -41.48992,35.06787 -17.85848,6.72192 -51.6079,14.92399 -82.72332,20.10413 -52.85763,8.79982 -77.79659,10.53219 -159.17697,11.05717 -42.00248,0.27095 -80.09454,0.17215 -84.64903,-0.21957 z"
         id="path3429"
         transform="scale(0.26458333)" />
      <path
         style="fill:#d45500;stroke-width:1.8402"
         d="m 299.03188,507.54706 c -25.07045,-2.63987 -68.62085,-13.6982 -62.56667,-15.88695 11.80639,-4.26833 120.46225,-8.01095 170.21815,-5.86312 l 33.12353,1.42985 -8.28088,3.57315 c -30.89107,13.32928 -91.81725,21.03026 -132.49413,16.74707 z"
         id="path3505"
         transform="scale(0.26458333)" />
    </g>
  </g>
</svg>
